<svg width="213" height="64" viewBox="0 0 213 64" fill="none" xmlns="http://www.w3.org/2000/svg">
<g clip-path="url(#clip0_2082_22143)">
<path d="M34.0575 5.05086C37.1494 6.60449 39.5503 8.80548 41.2719 11.6538C42.9935 14.5022 43.8368 17.8213 43.8368 21.6112C43.8368 25.4012 42.7944 29.0381 40.7215 32.0277C38.6485 35.0172 35.8611 37.1358 32.371 38.3835L44.844 62.0176H34.0575L22.8495 40.5021H9.69726V62.0176H4.44376e-06V8.53477C4.44376e-06 5.32156 -6.10352e-05 5.66289 -6.10352e-05 2.7204C3.19722 2.7204 23.2594 2.7204 23.2594 2.7204C27.3584 2.7204 30.9539 3.49722 34.0458 5.05086H34.0575ZM22.5098 32.0277C25.9882 32.0277 28.7638 31.0861 30.8134 29.1911C32.8629 27.2961 33.8936 24.7774 33.8936 21.6112C33.8936 18.4451 32.8629 15.9263 30.8134 14.0314C28.7638 12.1364 25.9999 11.1948 22.5098 11.1948H9.69726V32.0394H22.5098V32.0277Z" fill="#010A0C"/>
<path d="M56.3799 20.8934C59.5538 19.0572 63.1961 18.1392 67.2952 18.1392C71.3943 18.1392 75.1186 18.9866 78.2924 20.6815C81.4663 22.3764 83.9726 24.7775 85.7996 27.8847C87.6266 30.992 88.5636 34.6289 88.6221 38.8073C88.6221 39.9372 88.5401 41.0907 88.3645 42.2794H55.8295V42.7855C56.052 46.5755 57.2349 49.5651 59.3664 51.766C61.4979 53.967 64.3438 55.0734 67.8808 55.0734C70.6916 55.0734 73.0573 54.4143 74.9663 53.0843C76.8753 51.7543 78.1402 49.8828 78.7609 47.4465H87.8609C87.0762 51.8484 84.9564 55.4618 81.5014 58.2866C78.0465 61.1114 73.7366 62.5238 68.56 62.5238C64.0628 62.5238 60.1511 61.6058 56.8015 59.7696C53.4637 57.9335 50.8754 55.3559 49.0484 52.0132C47.2214 48.6705 46.3079 44.81 46.3079 40.408C46.3079 36.006 47.198 32.0395 48.9664 28.6733C50.7349 25.3071 53.2061 22.7177 56.3799 20.8816V20.8934ZM75.5988 28.179C73.4907 26.4017 70.8321 25.5072 67.6348 25.5072C64.6601 25.5072 62.0835 26.4253 59.9168 28.2614C57.7502 30.0975 56.497 32.5339 56.1691 35.5941H79.3465C78.9483 32.428 77.7069 29.9563 75.5988 28.179Z" fill="#010A0C"/>
<path d="M148.773 20.8934C151.947 19.0572 155.589 18.1392 159.689 18.1392C163.788 18.1392 167.512 18.9866 170.686 20.6815C173.86 22.3764 176.366 24.7775 178.193 27.8847C180.02 30.992 180.957 34.6289 181.015 38.8073C181.015 39.9372 180.934 41.0907 180.758 42.2794H148.223V42.7855C148.445 46.5755 149.628 49.5651 151.76 51.766C153.891 53.967 156.737 55.0734 160.274 55.0734C163.085 55.0734 165.439 54.4143 167.36 53.0843C169.269 51.7543 170.534 49.8828 171.154 47.4465H180.254C179.47 51.8484 177.35 55.4618 173.895 58.2866C170.44 61.1114 166.118 62.5238 160.953 62.5238C156.456 62.5238 152.533 61.6058 149.195 59.7696C145.845 57.9335 143.269 55.3559 141.442 52.0132C139.615 48.6705 138.701 44.81 138.701 40.408C138.701 36.006 139.58 32.0395 141.36 28.6733C143.128 25.3071 145.599 22.7177 148.773 20.8816V20.8934ZM167.992 28.179C165.884 26.4017 163.225 25.5072 160.028 25.5072C157.053 25.5072 154.477 26.4253 152.322 28.2614C150.155 30.0975 148.902 32.5339 148.574 35.5941H171.752C171.353 32.428 170.112 29.9563 168.004 28.179H167.992Z" fill="#010A0C"/>
<path d="M102.805 39.631C102.7 39.4191 102.653 39.1837 102.653 38.9483V18.6451H93.5527V38.9483C93.5527 40.5373 93.9041 42.1262 94.5834 43.5504L103.285 62.0293H113.357L102.817 39.6427L102.805 39.631Z" fill="#010A0C"/>
<path d="M124.893 18.6452V38.9484C124.893 39.1838 124.846 39.4075 124.741 39.6193L114.189 62.0176H124.261L132.963 43.527C133.63 42.1028 133.981 40.5256 133.981 38.9484V18.6452H124.882H124.893Z" fill="#010A0C"/>
<path d="M211.36 18.1273L195.468 24.7538L194.431 18.6451H186.52V54.5554H186.543V62.0175H195.655V33.3223L211.36 26.684V18.1273Z" fill="#010A0C"/>
</g>
<defs>
<clipPath id="clip0_2082_22143">
<rect width="213" height="59.8151" fill="white" transform="translate(0 2.7204)"/>
</clipPath>
</defs>
</svg>
